<svg width="31" height="30" viewBox="0 0 31 30" fill="none" xmlns="http://www.w3.org/2000/svg">
<path d="M27.7498 14.0001H6.14985L11.4499 8.70009C11.5446 8.60978 11.62 8.50118 11.6716 8.38085C11.7231 8.26053 11.7497 8.13099 11.7497 8.00009C11.7497 7.8692 11.7231 7.73966 11.6716 7.61934C11.62 7.49901 11.5446 7.3904 11.4499 7.30009C11.3595 7.20534 11.2509 7.1299 11.1306 7.07836C11.0103 7.02682 10.8807 7.00024 10.7499 7.00024C10.619 7.00024 10.4894 7.02682 10.3691 7.07836C10.2488 7.1299 10.1402 7.20534 10.0499 7.30009L3.04985 14.3001C2.95509 14.3904 2.87966 14.499 2.82812 14.6193C2.77658 14.7397 2.75 14.8692 2.75 15.0001C2.75 15.131 2.77658 15.2605 2.82812 15.3809C2.87966 15.5012 2.95509 15.6098 3.04985 15.7001L10.0499 22.7001C10.1402 22.7949 10.2488 22.8703 10.3691 22.9218C10.4894 22.9734 10.619 22.9999 10.7499 22.9999C10.8807 22.9999 11.0103 22.9734 11.1306 22.9218C11.2509 22.8703 11.3595 22.7949 11.4499 22.7001C11.5446 22.6098 11.62 22.5012 11.6716 22.3809C11.7231 22.2605 11.7497 22.131 11.7497 22.0001C11.7497 21.8692 11.7231 21.7397 11.6716 21.6193C11.62 21.499 11.5446 21.3904 11.4499 21.3001L6.14985 16.0001H27.7498C27.8833 16.0081 28.0169 15.9877 28.1418 15.9403C28.2668 15.8929 28.3803 15.8195 28.4748 15.725C28.5693 15.6305 28.6427 15.517 28.6901 15.3921C28.7375 15.2671 28.7579 15.1335 28.7498 15.0001C28.7579 14.8667 28.7375 14.7331 28.6901 14.6081C28.6427 14.4832 28.5693 14.3697 28.4748 14.2752C28.3803 14.1807 28.2668 14.1073 28.1418 14.0599C28.0169 14.0124 27.8833 13.9921 27.7498 14.0001Z" fill="#060302"/>
</svg>
