<svg width="28" height="26" viewBox="0 0 28 26" fill="none" xmlns="http://www.w3.org/2000/svg">
<path opacity="0.8" d="M4.41602 4.06253L7.74935 3.66235C7.74935 3.66235 6.79697 6.06338 6.79697 9.26476C6.79697 12.4661 7.74935 14.467 7.74935 14.467H4.41602V4.06253Z" fill="#060302"/>
<path d="M24.5526 2.36975C23.7472 2.23784 22.9318 2.16994 22.1146 2.16675C19.3264 2.16458 16.5964 2.92488 14.25 4.35702C11.8975 2.94368 9.16798 2.20204 6.38543 2.22017C5.56825 2.22336 4.75276 2.29126 3.94742 2.42317C3.68363 2.46642 3.44474 2.59782 3.27378 2.7937C3.10282 2.98957 3.01102 3.23706 3.01491 3.4916V16.3127C3.0125 16.4697 3.04651 16.6252 3.11451 16.7683C3.18251 16.9114 3.28283 17.0384 3.40833 17.1404C3.53383 17.2424 3.68144 17.3169 3.84064 17.3585C3.99984 17.4001 4.16672 17.4078 4.32941 17.3811C5.93942 17.116 7.58894 17.16 9.1808 17.5105C10.7727 17.8609 12.2747 18.5108 13.5984 19.4218L13.7332 19.4966H13.8568C13.9814 19.5459 14.115 19.5714 14.25 19.5714C14.385 19.5714 14.5186 19.5459 14.6432 19.4966H14.7668L14.9016 19.4218C16.2161 18.4904 17.7138 17.8195 19.306 17.4488C20.8981 17.0781 22.5524 17.0151 24.1706 17.2636C24.3333 17.2903 24.5002 17.2826 24.6594 17.241C24.8186 17.1994 24.9662 17.1249 25.0917 17.0229C25.2172 16.9209 25.3175 16.7938 25.3855 16.6508C25.4535 16.5077 25.4875 16.3521 25.4851 16.1951V3.37407C25.4734 3.13063 25.3746 2.89831 25.2049 2.71564C25.0353 2.53297 24.8051 2.41093 24.5526 2.36975ZM13.1265 16.5691C11.0479 15.5292 8.73415 14.9865 6.38543 14.9878C6.01468 14.9878 5.64392 14.9878 5.26193 14.9878V4.3036C5.63612 4.28309 6.01124 4.28309 6.38543 4.3036C8.78231 4.30108 11.1269 4.96996 13.1265 6.22676V16.5691ZM23.2381 15.0306C22.8561 15.0306 22.4853 15.0306 22.1146 15.0306C19.7658 15.0292 17.4521 15.5719 15.3735 16.6118V6.22676C17.3731 4.96996 19.7177 4.30108 22.1146 4.3036C22.4888 4.28309 22.8639 4.28309 23.2381 4.3036V15.0306ZM24.5526 19.4645C23.7472 19.3326 22.9318 19.2647 22.1146 19.2615C19.3264 19.2593 16.5964 20.0196 14.25 21.4518C11.9036 20.0196 9.17357 19.2593 6.38543 19.2615C5.56825 19.2647 4.75276 19.3326 3.94742 19.4645C3.80117 19.4866 3.66095 19.5359 3.53482 19.6097C3.4087 19.6835 3.29916 19.7803 3.21249 19.8945C3.12583 20.0087 3.06376 20.138 3.02985 20.2751C2.99594 20.4122 2.99086 20.5543 3.01491 20.6932C3.072 20.9707 3.24241 21.2153 3.48879 21.3735C3.73518 21.5317 4.03746 21.5906 4.32941 21.5373C5.93942 21.2722 7.58894 21.3162 9.1808 21.6666C10.7727 22.0171 12.2747 22.667 13.5984 23.578C13.7886 23.7068 14.0164 23.776 14.25 23.776C14.4836 23.776 14.7114 23.7068 14.9016 23.578C16.2253 22.667 17.7273 22.0171 19.3192 21.6666C20.9111 21.3162 22.5606 21.2722 24.1706 21.5373C24.4625 21.5906 24.7648 21.5317 25.0112 21.3735C25.2576 21.2153 25.428 20.9707 25.4851 20.6932C25.5091 20.5543 25.5041 20.4122 25.4701 20.2751C25.4362 20.138 25.3742 20.0087 25.2875 19.8945C25.2008 19.7803 25.0913 19.6835 24.9652 19.6097C24.839 19.5359 24.6988 19.4866 24.5526 19.4645Z" fill="#060302"/>
<path d="M24.5281 19.6272L24.5281 19.6272C23.7307 19.4953 22.9233 19.4274 22.1142 19.4242C19.3537 19.422 16.6511 20.1823 14.3287 21.6139L14.25 21.6624L14.1713 21.6139C11.8489 20.1823 9.14635 19.422 6.38579 19.4242C5.57667 19.4274 4.76925 19.4953 3.9719 19.6272L3.97002 19.6275L3.97002 19.6275C3.84254 19.6469 3.72057 19.6903 3.61113 19.755C3.50169 19.8196 3.40705 19.9042 3.33241 20.0035C3.25778 20.1028 3.20457 20.215 3.17555 20.3335C3.14671 20.4512 3.14224 20.5731 3.16236 20.6924C3.21164 20.9311 3.35746 21.1432 3.57041 21.2813C3.78423 21.4199 4.0475 21.472 4.3022 21.425L4.3048 21.4245L4.30481 21.4245C5.93378 21.1537 7.6027 21.1986 9.21336 21.5567C10.8238 21.9148 12.3437 22.5788 13.6835 23.51C13.8484 23.6226 14.0464 23.6835 14.25 23.6835C14.4536 23.6835 14.6516 23.6226 14.8165 23.51C14.8167 23.5099 14.8168 23.5098 14.817 23.5096L14.9016 23.6335C16.2253 22.7134 17.7273 22.0571 19.3192 21.7032C20.9111 21.3492 22.5606 21.3048 24.1706 21.5725L24.5281 19.6272ZM24.5281 19.6272L24.53 19.6275C24.6575 19.6469 24.7794 19.6903 24.8889 19.755C24.9983 19.8196 25.093 19.9042 25.1676 20.0035C25.2422 20.1028 25.2954 20.215 25.3245 20.3335C25.3533 20.4512 25.3578 20.5731 25.3376 20.6924L24.5281 19.6272Z" stroke="white" stroke-width="0.3"/>
</svg>
