<svg width="27" height="26" viewBox="0 0 27 26" fill="none" xmlns="http://www.w3.org/2000/svg">
<g clip-path="url(#clip0_2894_4434)">
<path opacity="0.8" d="M7.09574 21.2025C5.09848 21.0293 3.53125 19.3535 3.53125 17.3113V10.7382C3.53125 9.51978 4.09977 8.37115 5.06855 7.63225L10.3811 3.58033C11.7801 2.51326 13.7199 2.51326 15.1189 3.58033L15.4783 3.85443C14.5189 3.75975 13.5319 4.01943 12.7248 4.63502L6.40672 9.45393C6.07164 9.70947 5.875 10.1068 5.875 10.5282V18.366C5.875 19.4831 6.34402 20.4905 7.09574 21.2025Z" fill="#3787FF"/>
<path d="M18.0625 21.9991H7.4375C4.85281 21.9991 2.75 19.8962 2.75 17.3116V10.7385C2.75 9.28569 3.43965 7.89237 4.59477 7.01132L9.90727 2.9594C11.5811 1.6828 13.9189 1.6828 15.5927 2.9594L20.9052 7.01132C22.0604 7.89233 22.75 9.28565 22.75 10.7385V17.3116C22.75 19.8962 20.6472 21.9991 18.0625 21.9991ZM12.75 3.56347C12.0813 3.56347 11.4129 3.7762 10.8548 4.20175L5.54234 8.25366C4.77227 8.84104 4.3125 9.76991 4.3125 10.7385V17.3116C4.3125 19.0347 5.71438 20.4366 7.4375 20.4366H18.0625C19.7856 20.4366 21.1875 19.0347 21.1875 17.3116V10.7385C21.1875 9.76995 20.7277 8.84104 19.9577 8.2537L14.6452 4.20179C14.0873 3.77632 13.4186 3.56347 12.75 3.56347Z" fill="#3787FF"/>
<path d="M15.5625 17.5847H9.97656C8.68422 17.5847 7.63281 16.5333 7.63281 15.241V12.3113C7.63281 11.0189 8.68422 9.96753 9.97656 9.96753H11.0644C11.7299 9.96753 12.3365 10.2298 12.7861 10.6564C13.2343 10.2296 13.84 9.96753 14.5057 9.96753H15.5625C16.8548 9.96753 17.9062 11.0189 17.9062 12.3113V15.241C17.9062 16.5333 16.8548 17.5847 15.5625 17.5847ZM9.97656 11.53C9.54578 11.53 9.19531 11.8805 9.19531 12.3113V15.241C9.19531 15.6718 9.54578 16.0222 9.97656 16.0222H15.5625C15.9933 16.0222 16.3438 15.6718 16.3438 15.241V12.3113C16.3438 11.8805 15.9933 11.53 15.5625 11.53H14.5057C13.9902 11.53 13.5707 11.951 13.5703 12.4687V12.4706V13.9128C13.5703 14.3443 13.2205 14.6941 12.7891 14.6941C12.3576 14.6941 12.0078 14.3443 12.0078 13.9128V12.4715C12.005 11.9523 11.582 11.53 11.0644 11.53H9.97656Z" fill="#3787FF"/>
</g>
<defs>
<clipPath id="clip0_2894_4434">
<rect width="20" height="20" fill="white" transform="translate(2.75 2)"/>
</clipPath>
</defs>
</svg>
