<svg width="27" height="26" viewBox="0 0 27 26" fill="none" xmlns="http://www.w3.org/2000/svg">
<g clip-path="url(#clip0_2894_4451)">
<path d="M9.88333 2.4166C9.83333 3.66667 9.01596 3.5665 8.58333 3.5665C8.15071 3.5665 7.75 3.21579 7.75 2.78317C7.75 2.35055 8.15071 1.58327 8.58333 1.58327C9.01596 1.58327 9.93333 1.16654 9.88333 2.4166Z" fill="#7B8BB2"/>
<path d="M10.2477 6.89762C10.2037 7.6608 9.83333 7.8169 8.72566 7.76481C8.21915 7.76481 7.75 7.54679 7.75 7.19538C7.75 6.84396 8.21915 6.22071 8.72566 6.22071C9.23218 6.22071 10.2917 6.13443 10.2477 6.89762Z" fill="#7B8BB2"/>
<path d="M7.98438 7H5.64062C4.47566 7 3.53125 6.05559 3.53125 4.89062C3.53125 3.72563 4.47566 2.78125 5.64062 2.78125H7.98438C6.81941 2.78125 5.875 3.72563 5.875 4.89062C5.875 6.05559 6.81941 7 7.98438 7ZM5.875 12C5.875 10.835 6.81941 9.89062 7.98438 9.89062H5.64062C4.47566 9.89062 3.53125 10.835 3.53125 12C3.53125 13.165 4.47566 14.1094 5.64062 14.1094H7.98438C6.81941 14.1094 5.875 13.165 5.875 12ZM5.875 19.1094C5.875 17.9444 6.81941 17 7.98438 17H5.64062C4.47566 17 3.53125 17.9444 3.53125 19.1094C3.53125 20.2743 4.47566 21.2188 5.64062 21.2188H7.98438C6.81941 21.2188 5.875 20.2743 5.875 19.1094Z" fill="#D7DDEC"/>
<path d="M9.09979 7.00002C9.04811 7.04023 8.98418 7.0833 8.91063 7.12978C8.89382 7.1404 8.86919 7.15573 8.84369 7.17161C8.81121 7.19183 8.77731 7.21294 8.7563 7.22634C8.7351 7.23987 8.70563 7.25877 8.67406 7.28127H5.64062C4.32286 7.28127 3.25 6.20841 3.25 4.89064C3.25 3.57288 4.32286 2.50002 5.64062 2.50002H8.33476C8.34606 2.50565 8.3563 2.51051 8.3649 2.51452C8.41902 2.53977 8.5142 2.57823 8.6093 2.61667C8.67239 2.64217 8.73545 2.66765 8.78646 2.68925C8.87668 2.72745 8.961 2.76573 9.03467 2.80339C8.98682 2.83168 8.93371 2.8608 8.87671 2.8906C8.85159 2.90374 8.82101 2.91924 8.78798 2.93597C8.70849 2.97625 8.61486 3.02369 8.54938 3.06252H5.64062C4.63214 3.06252 3.8125 3.88216 3.8125 4.89064C3.8125 5.89913 4.63214 6.71877 5.64062 6.71877H8.67406C8.70563 6.74126 8.7351 6.76016 8.7563 6.77369C8.77731 6.7871 8.81122 6.80821 8.8437 6.82843C8.8692 6.84431 8.89382 6.85963 8.91063 6.87026C8.98418 6.91674 9.04811 6.9598 9.09979 7.00002ZM10.1791 7.00002C10.1791 6.9034 10.1684 6.80927 10.1481 6.71877H19.8594C20.8679 6.71877 21.6875 5.89913 21.6875 4.89064C21.6875 3.88216 20.8679 3.06252 19.8594 3.06252H10.1722C10.1924 2.97201 10.2031 2.87789 10.2031 2.78127C10.2031 2.68464 10.1924 2.59051 10.1722 2.5L19.8594 2.50002C21.1771 2.50002 22.25 3.57288 22.25 4.89064C22.25 6.20841 21.1771 7.28127 19.8594 7.28127H10.1481C10.1684 7.19076 10.1791 7.09664 10.1791 7.00002ZM15.6016 13.8281C15.7569 13.8281 15.8828 13.954 15.8828 14.1094C15.8828 14.2647 15.7569 14.3906 15.6016 14.3906H5.64062C4.32286 14.3906 3.25 13.3178 3.25 12C3.25 10.6823 4.32286 9.60939 5.64062 9.60939H15.6016C15.7569 9.60939 15.8828 9.7353 15.8828 9.89064C15.8828 10.046 15.7569 10.1719 15.6016 10.1719H5.64062C4.63214 10.1719 3.8125 10.9915 3.8125 12C3.8125 13.0085 4.63214 13.8281 5.64062 13.8281H15.6016ZM5.64062 16.7188H8.13088C8.10137 16.8043 8.08333 16.8982 8.08333 17C8.08333 17.1067 8.10809 17.2008 8.14428 17.2813H5.64062C4.63214 17.2813 3.8125 18.1009 3.8125 19.1094C3.8125 20.1179 4.63214 20.9375 5.64062 20.9375H9.43534C9.46758 20.9686 9.50409 21.0011 9.53385 21.0277C9.53825 21.0316 9.5425 21.0354 9.54657 21.0391C9.6281 21.112 9.68826 21.1686 9.7297 21.2218C9.73784 21.2323 9.7437 21.2407 9.74782 21.247C9.74425 21.2724 9.7358 21.3066 9.71898 21.3532C9.70717 21.386 9.69328 21.4196 9.6762 21.4597C9.67394 21.465 9.67151 21.4707 9.66895 21.4767C9.66579 21.484 9.66244 21.4919 9.65898 21.5H5.64062C4.32286 21.5 3.25 20.4272 3.25 19.1094C3.25 17.7916 4.32286 16.7188 5.64062 16.7188ZM9.2864 16.8863C9.49054 16.7747 9.72082 16.7188 9.83333 16.7188H10.8359C10.9913 16.7188 11.1172 16.8447 11.1172 17C11.1172 17.1554 10.9913 17.2813 10.8359 17.2813H10.6667C10.5205 17.2813 10.0528 17.2085 9.6081 17.0739C9.45323 17.027 9.3188 16.9777 9.21337 16.9297C9.23522 16.9155 9.25955 16.901 9.2864 16.8863ZM12.0862 17.2813C12.1065 17.1908 12.1172 17.0966 12.1172 17C12.1172 16.9034 12.1065 16.8093 12.0862 16.7188H19.8203C21.1381 16.7188 22.2109 17.7916 22.2109 19.1094C22.2109 20.4272 21.1381 21.5 19.8203 21.5H12.0862C12.1065 21.4095 12.1172 21.3154 12.1172 21.2188C12.1172 21.1221 12.1065 21.028 12.0862 20.9375H19.8203C20.8288 20.9375 21.6484 20.1179 21.6484 19.1094C21.6484 18.1009 20.8288 17.2813 19.8203 17.2813H12.0862ZM10.8359 21.5H10.717C10.7364 21.4155 10.75 21.3207 10.75 21.2188C10.75 21.116 10.7312 21.0219 10.7024 20.9375H10.8359C10.9913 20.9375 11.1172 21.0634 11.1172 21.2188C11.1172 21.3741 10.9913 21.5 10.8359 21.5ZM10.2406 21.4998C10.2388 21.4997 10.2379 21.4996 10.2381 21.4996L10.2406 21.4998ZM9.07332 17.0518C9.07328 17.0518 9.07353 17.0513 9.07414 17.0503L9.07332 17.0518ZM9.75668 21.2625C9.75667 21.2625 9.75653 21.2622 9.75631 21.2617L9.75668 21.2625Z" fill="white" stroke="#060302"/>
<path d="M19.8203 14.3906H18.7266C18.5712 14.3906 18.4453 14.2647 18.4453 14.1094C18.4453 13.954 18.5712 13.8281 18.7266 13.8281H19.8203C20.8288 13.8281 21.6484 13.0085 21.6484 12C21.6484 10.9915 20.8288 10.1719 19.8203 10.1719H18.7266C18.5712 10.1719 18.4453 10.046 18.4453 9.89062C18.4453 9.73528 18.5712 9.60938 18.7266 9.60938H19.8203C21.1381 9.60938 22.2109 10.6822 22.2109 12C22.2109 13.3178 21.1381 14.3906 19.8203 14.3906Z" fill="white" stroke="#060302"/>
</g>
<defs>
<clipPath id="clip0_2894_4451">
<rect width="20" height="20" fill="white" transform="translate(2.75 2)"/>
</clipPath>
</defs>
</svg>
