<svg width="25" height="25" viewBox="0 0 25 25" fill="none" xmlns="http://www.w3.org/2000/svg">
<path d="M6.5 14.0002V14V10C6.5 8.07718 7.26384 6.23312 8.62348 4.87348C9.98311 3.51384 11.8272 2.75 13.75 2.75C15.6728 2.75 17.5169 3.51384 18.8765 4.87348C20.2362 6.23311 21 8.07718 21 10V14V14.0002C21.0001 14.4642 21.1845 14.9092 21.5127 15.2373C21.5127 15.2374 21.5127 15.2374 21.5128 15.2374L23.9268 17.6515C23.9737 17.6984 24 17.762 24 17.8283V18C24 18.1381 23.8881 18.25 23.75 18.25H3.75C3.61193 18.25 3.5 18.1381 3.5 18V17.8283C3.5 17.762 3.52634 17.6984 3.57322 17.6515L5.98725 15.2374C6.31546 14.9093 6.4999 14.4643 6.5 14.0002ZM16 22C16 22.5967 15.7629 23.169 15.341 23.591C14.919 24.0129 14.3467 24.25 13.75 24.25C13.1533 24.25 12.581 24.0129 12.159 23.591C11.7371 23.169 11.5 22.5967 11.5 22V21.75H16V22Z" stroke="#060302" stroke-width="1.5"/>
<circle cx="7.75" cy="7" r="6" fill="#3787FF" stroke="#F8FAFF" stroke-width="2"/>
</svg>
