<svg width="28" height="26" viewBox="0 0 28 26" fill="none" xmlns="http://www.w3.org/2000/svg">
<path d="M6.56447 11.0889C6.56447 7.04529 9.65279 3.69574 13.6836 3.10497C13.2681 3.04404 12.8425 3.01245 12.4092 3.01245C7.77359 3.01245 4.01562 6.62844 4.01562 11.0889C4.01562 15.5495 7.77359 19.1654 12.4092 19.1654C12.8425 19.1654 13.2681 19.1338 13.6836 19.0729C9.65283 18.4821 6.56447 15.1326 6.56447 11.0889Z" fill="white"/>
<path d="M12.2725 19.5115C7.41724 19.5115 3.49962 15.7148 3.49962 11.089C3.49962 6.46312 7.41724 2.66637 12.2725 2.66637C17.1278 2.66637 21.0454 6.46312 21.0454 11.089C21.0454 15.7148 17.1278 19.5115 12.2725 19.5115ZM12.2725 3.35854C7.87126 3.35854 4.2582 6.80798 4.2582 11.089C4.2582 15.3699 7.87126 18.8194 12.2725 18.8194C16.6738 18.8194 20.2868 15.3699 20.2868 11.089C20.2868 6.80798 16.6738 3.35854 12.2725 3.35854Z" fill="white" stroke="#060302" stroke-width="0.999235"/>
<path d="M20.9626 18.9654L20.9626 18.9654C20.8128 18.8213 20.5623 18.8212 20.4124 18.9654C20.2735 19.0991 20.2735 19.3077 20.4124 19.4414L20.9626 18.9654ZM20.9626 18.9654L24.8957 22.7499M20.9626 18.9654L24.8957 22.7499M24.8957 22.7499C24.8957 22.7499 24.8957 22.7499 24.8957 22.7499M24.8957 22.7499L24.8957 22.7499M24.8957 22.7499C25.0347 22.8837 25.0346 23.0922 24.8957 23.2259L24.8957 22.7499ZM24.3455 23.2259L20.4124 19.4414L24.8957 23.226C24.8228 23.2961 24.7244 23.334 24.6206 23.334C24.5168 23.334 24.4185 23.2961 24.3455 23.226C24.3455 23.2259 24.3455 23.2259 24.3455 23.2259Z" fill="white" stroke="#060302" stroke-width="0.999235"/>
</svg>
