<svg width="17" height="16" viewBox="0 0 17 16" fill="none" xmlns="http://www.w3.org/2000/svg">
<path fill-rule="evenodd" clip-rule="evenodd" d="M1.04102 7.00008C1.04102 3.50229 3.87656 0.666748 7.37435 0.666748C10.8721 0.666748 13.7077 3.50229 13.7077 7.00008C13.7077 8.50884 13.1801 9.89438 12.2994 10.9823L14.7481 13.431C15.0085 13.6914 15.0085 14.1135 14.7481 14.3739C14.4878 14.6342 14.0657 14.6342 13.8053 14.3739L11.3566 11.9251C10.2686 12.8058 8.88311 13.3334 7.37435 13.3334C3.87656 13.3334 1.04102 10.4979 1.04102 7.00008ZM7.37435 2.00008C4.61294 2.00008 2.37435 4.23867 2.37435 7.00008C2.37435 9.76149 4.61294 12.0001 7.37435 12.0001C10.1358 12.0001 12.3743 9.76149 12.3743 7.00008C12.3743 4.23867 10.1358 2.00008 7.37435 2.00008Z" fill="#060302"/>
</svg>
